<svg width="100" height="100" viewBox="0 0 100 100" fill="none" xmlns="http://www.w3.org/2000/svg">
<g clip-path="url(#clip0)">
<path d="M46.8203 45.875L51.0391 40.9531C55.3047 36.2188 58.6797 32.7031 61.1641 30.4062C63.6953 28.0625 65.9453 26.375 67.9141 25.3438C69.9297 24.3125 71.9688 23.7969 74.0312 23.7969C77.3594 23.7969 79.7031 24.6875 81.0625 26.4688C82.4219 28.25 83.1016 31.3438 83.1016 35.75C83.1016 37.5781 82.9141 40.2734 82.5391 43.8359C81.9766 48.5703 81.6953 53.0234 81.6953 57.1953C81.6953 61.8828 81.9297 65.6797 82.3984 68.5859C82.7266 70.3672 83.2188 72.1484 83.875 73.9297C84.3438 75.6172 84.5781 76.7656 84.5781 77.375C84.5781 78.125 84.2969 78.7109 83.7344 79.1328C82.2812 80.3984 80.3594 81.5 77.9688 82.4375C75.5781 83.375 73.5625 83.8438 71.9219 83.8438C69.25 83.8438 66.8125 82.9297 64.6094 81.1016C62.4531 79.2734 60.7656 76.7422 59.5469 73.5078C58.375 70.2734 57.7891 66.6172 57.7891 62.5391C57.7891 59.8203 58.0703 56.6094 58.6328 52.9062L58.3516 52.625C56.3359 54.875 54.6953 56.6562 53.4297 57.9688C52.2109 59.2812 51.0625 60.5234 49.9844 61.6953C44.7344 67.6953 40.2812 73.1094 36.625 77.9375C35.2188 79.8125 33.9297 81.4531 32.7578 82.8594C31.0234 84.5938 29.0547 85.4609 26.8516 85.4609C23.8516 85.4609 21.4141 84.3359 19.5391 82.0859C17.6641 79.8359 16.7266 76.9297 16.7266 73.3672C16.7266 71.1641 16.9844 68.4688 17.5 65.2812C18.0156 62.0938 18.6953 58.6953 19.5391 55.0859C20.4297 51.4297 21.4609 47.6797 22.6328 43.8359C23.8516 39.9922 25.1641 36.3359 26.5703 32.8672C28.7266 27.1016 31.3516 22.6016 34.4453 19.3672C36.5547 17.2578 39.1094 16.2031 42.1094 16.2031C46.9844 16.2031 49.4219 19.3672 49.4219 25.6953C49.4219 30.3359 48.4609 36.9688 46.5391 45.5938L46.8203 45.875Z" fill="white"/>
</g>
<defs>
<clipPath id="clip0">
<rect width="100" height="100" fill="white"/>
</clipPath>
</defs>
</svg>
